<?xml version="1.0" encoding="UTF-8" standalone="no" ?>
<!DOCTYPE svg PUBLIC "-//W3C//DTD SVG 1.1//EN" "http://www.w3.org/Graphics/SVG/1.1/DTD/svg11.dtd">
<svg xmlns="http://www.w3.org/2000/svg" xmlns:xlink="http://www.w3.org/1999/xlink" version="1.1" width="125.36000000000004" height="116.125" xml:space="preserve">
<desc>Created with Fabric.js 1.6.0-rc.1</desc>
<defs></defs>
<g style="stroke: none; stroke-width: 1; stroke-dasharray: none; stroke-linecap: butt; stroke-linejoin: miter; stroke-miterlimit: 10; fill: none; fill-rule: nonzero; opacity: 1;" transform="translate(10 10) rotate(6.88) scale(0.56 0.5)" >
  <path d="M 162.929 66.612 c -2.814 -1.754 -6.514 -0.896 -8.267 1.917 s -0.895 6.513 1.917 8.266 c 6.544 4.081 10.45 11.121 10.45 18.833 s -3.906 14.752 -10.45 18.833 l -98.417 61.365 c -6.943 4.329 -15.359 4.542 -22.512 0.573 c -7.154 -3.97 -11.425 -11.225 -11.425 -19.406 V 34.262 c 0 -8.181 4.271 -15.436 11.425 -19.406 c 7.153 -3.969 15.569 -3.756 22.512 0.573 l 57.292 35.723 c 2.813 1.752 6.513 0.895 8.267 -1.917 c 1.753 -2.812 0.895 -6.513 -1.917 -8.266 L 64.512 5.247 c -10.696 -6.669 -23.661 -7 -34.685 -0.883 C 18.806 10.48 12.226 21.657 12.226 34.262 v 122.73 c 0 12.605 6.58 23.782 17.602 29.898 c 5.25 2.913 10.939 4.364 16.616 4.364 c 6.241 0 12.467 -1.754 18.068 -5.247 l 98.417 -61.365 c 10.082 -6.287 16.101 -17.133 16.101 -29.015 S 173.011 72.899 162.929 66.612 z" style="stroke: none; stroke-width: 1; stroke-dasharray: none; stroke-linecap: butt; stroke-linejoin: miter; stroke-miterlimit: 10; fill: #0a2479; fill-rule: nonzero; opacity: 1;" transform=" matrix(1 0 0 1 0 0) " stroke-linecap="round" />
</g>
  <g transform="translate(51.53 68.42) scale(1.15 1.15)">
   <text font-family="Youthanasia" font-size="40" font-style="italic" font-weight="normal" style="stroke: none; stroke-width: 1; stroke-dasharray: none; stroke-linecap: butt; stroke-linejoin: miter; stroke-miterlimit: 10; fill: #00072d; fill-rule: nonzero; opacity: 1;" ><tspan x="-25.33" y="8.98" style="stroke: none; stroke-width: 0; stroke-dasharray: none; stroke-linecap: butt; stroke-linejoin: miter; stroke-miterlimit: 4; fill: #00072d; fill-rule: ; opacity: 1;">r</tspan><tspan x="-8.54" y="8.98" style="stroke: none; stroke-width: 0; stroke-dasharray: none; stroke-linecap: butt; stroke-linejoin: miter; stroke-miterlimit: 4; fill: #00072d; fill-rule: ; opacity: 1;">t</tspan><tspan x="4.62" y="8.98" style="stroke: none; stroke-width: 0; stroke-dasharray: none; stroke-linecap: butt; stroke-linejoin: miter; stroke-miterlimit: 4; fill: #00072d; fill-rule: ; opacity: 1;">C</tspan></text>
 </g>
<g style="stroke: none; stroke-width: 1; stroke-dasharray: none; stroke-linecap: butt; stroke-linejoin: miter; stroke-miterlimit: 10; fill: #572957; fill-rule: nonzero; opacity: 1;" transform="translate(75.83000000000004 19.699999999999992) scale(0.67 0.55)" >
  <path d="M 29 1.5 c -16.016 0 -29 11.641 -29 26 c 0 5.292 1.768 10.211 4.796 14.318 C 4.398 46.563 3.254 53.246 0 56.5 c 0 0 9.943 -1.395 16.677 -5.462 c 0.007 0.003 0.015 0.006 0.022 0.009 c 2.764 -1.801 5.532 -3.656 6.105 -4.126 c 0.3 -0.421 0.879 -0.548 1.33 -0.277 c 0.296 0.178 0.483 0.503 0.489 0.848 c 0.01 0.622 -0.005 0.784 -5.585 4.421 C 22.146 52.933 25.498 53.5 29 53.5 c 16.016 0 29 -11.641 29 -26 S 45.016 1.5 29 1.5 z" style="stroke: none; stroke-width: 1; stroke-dasharray: none; stroke-linecap: butt; stroke-linejoin: miter; stroke-miterlimit: 10; fill: #572957; fill-rule: nonzero; opacity: 1;" transform=" matrix(1 0 0 1 0 0) " stroke-linecap="round" />
</g>
</svg>